# xmcd
#
# Track frame offsets:
#       150
#       900
#       1650
#       2400
#       3150
#       3900
#       4650
#       5400
#       6150
#       6900
#       189690
#
# Disc length: 2685 seconds
#
# Revision: 1
# Processed by: cddbd v1.4PL0 Copyright (c) Steve Scherf et al.
# Submitted via: MusiCat 1.1
#
DISCID=530a7b0b
DTITLE=Aretha Franklin - So Damn Happy
DYEAR=2003
DGENRE=
TTITLE0=The Only Thing Missin'
TTITLE1=Wonderful
TTITLE2=Holdin' On
TTITLE3=No Matter What
TTITLE4=Everybody's SAonmebody's Fool
TTITLE5=So Damn Happy
TTITLE6=You Are My Joy
TTITLE7=Falling Out Of Love
TTITLE8=Ain't No Way
TTITLE9=Good News
TTITLE10=You Are My Joy (Reprise)
EXTD=Arista\n\n
EXTT0=
EXTT1=
EXTT2=
EXTT3=
EXTT4=
EXTT5=
EXTT6=
EXTT7=
EXTT8=
EXTT9=
EXTT10=
PLAYORDER=
